<svg width="50" height="50" viewBox="0 0 50 50" fill="none" xmlns="http://www.w3.org/2000/svg">
<path d="M49.7698 22.0068C48.2913 9.60979 37.7565 0 24.9758 0C11.1811 0 0 11.1932 0 25C0 38.8068 11.1811 50 24.9758 50C25.7352 50 26.4865 49.9636 27.2298 49.899L49.7698 22.0068Z" fill="#EC4B24"/>
<path d="M49.9515 25C49.9515 23.9861 49.8909 22.9884 49.7738 22.0068L33.0263 5.24316L14.6591 35.4338L23.873 44.6558L23.4408 46.1019L27.2297 49.895C39.9661 48.7518 49.9475 38.0433 49.9475 24.996L49.9515 25Z" fill="#E52929"/>
<path d="M23.2389 33.6968L24.9758 46.7401C26.1756 46.7401 27.1491 45.7666 27.1491 44.5669V33.6968H23.2389Z" fill="#F5B5B2"/>
<path d="M22.8026 33.6968V44.5669C22.8026 45.7666 23.7761 46.7401 24.9758 46.7401V33.6968H22.8026Z" fill="#FFEBC4"/>
<path d="M34.3513 8.26061C34.2705 5.86927 32.2508 3.91418 29.8635 3.91418H24.9758L20.6334 20.2173L24.9758 35.4338H27.6903L29.5242 34.3472L31.9236 35.4338H35.2885L34.3473 8.25657L34.3513 8.26061Z" fill="#FFB014"/>
<path d="M20.088 3.91418C17.7007 3.91418 15.681 5.86927 15.6002 8.26061L14.6591 35.4379H18.0239L20.4233 34.3513L22.2572 35.4379H24.9717V3.91418H20.084H20.088Z" fill="#FFC44F"/>
<path d="M31.3621 8.26062H27.149V35.4379H31.9276L31.3621 8.26062Z" fill="#F98E19"/>
<path d="M18.5895 8.26062L18.024 35.4379H22.8026V8.26062H18.5895Z" fill="#FFB014"/>
</svg>
