<svg width="24" height="24" viewBox="0 0 24 24" fill="none" xmlns="http://www.w3.org/2000/svg">
<path d="M14.1988 11.9999L23.5439 2.65453C24.1521 2.04665 24.1521 1.06379 23.5439 0.45591C22.936 -0.15197 21.9532 -0.15197 21.3453 0.45591L11.9999 9.80132L2.65474 0.45591C2.04658 -0.15197 1.064 -0.15197 0.456124 0.45591C-0.152041 1.06379 -0.152041 2.04665 0.456124 2.65453L9.80126 11.9999L0.456124 21.3454C-0.152041 21.9532 -0.152041 22.9361 0.456124 23.544C0.759068 23.8472 1.15739 23.9995 1.55543 23.9995C1.95347 23.9995 2.35152 23.8472 2.65474 23.544L11.9999 14.1986L21.3453 23.544C21.6485 23.8472 22.0466 23.9995 22.4446 23.9995C22.8426 23.9995 23.2407 23.8472 23.5439 23.544C24.1521 22.9361 24.1521 21.9532 23.5439 21.3454L14.1988 11.9999Z" fill="#276EE7"/>
</svg>
