<svg width="30" height="49" viewBox="0 0 30 49" fill="none" xmlns="http://www.w3.org/2000/svg">
<g clip-path="url(#clip0_481_225)">
<path d="M6.4564 42.0124V49.1258C6.4564 49.18 6.41523 49.2342 6.34661 49.2342H5.59177C5.24867 49.2342 4.91928 49.0581 4.72715 48.7735L1.32353 43.5842L1.43332 46.1721V49.1394C1.43332 49.1936 1.39215 49.2478 1.32353 49.2478H0.33538C0.280483 49.2478 0.225586 49.2071 0.225586 49.1394V42.0124C0.225586 41.9583 0.266759 41.9041 0.33538 41.9041H1.07649C1.4196 41.9041 1.74898 42.0802 1.94112 42.3647L5.34474 47.5406L5.23494 44.9526V42.0124C5.23494 41.9583 5.27612 41.9041 5.34474 41.9041H6.33288C6.41523 41.9041 6.4564 41.9447 6.4564 42.0124Z" fill="black"/>
<path d="M16.5848 49.2207H15.5418C15.4731 49.2207 15.4182 49.1529 15.4457 49.0852L18.218 41.9989C18.2454 41.9447 18.3003 41.9041 18.3552 41.9041H19.6728C19.7414 41.9041 19.7963 41.9447 19.81 41.9989L22.596 49.0852C22.6235 49.1529 22.5686 49.2207 22.5 49.2207H21.4569C21.4158 49.2207 21.3746 49.1936 21.3609 49.1529L19.1238 43.3267C19.0964 43.2454 18.9591 43.2454 18.9317 43.3267L16.6946 49.1529C16.6672 49.1936 16.626 49.2207 16.5848 49.2207Z" fill="black"/>
<path d="M29.8698 49.0581L27.7837 46.4295C28.964 46.2127 29.6502 45.4269 29.6502 44.221C29.6502 42.839 28.7444 41.9041 27.125 41.9041H24.2154C24.1331 41.9041 24.0645 41.9718 24.0645 42.0531C24.0645 42.5951 24.5036 43.0286 25.0526 43.0286H27.0152C27.9896 43.0286 28.4562 43.5164 28.4562 44.2345C28.4562 44.9526 28.0033 45.4404 27.0152 45.4404H24.2429C24.1605 45.4404 24.0919 45.5082 24.0919 45.5895V49.1123C24.0919 49.1665 24.1331 49.2207 24.2017 49.2207H25.1898C25.2447 49.2207 25.2996 49.18 25.2996 49.1123V46.4973H26.4387L28.2503 48.8277C28.4425 49.0852 28.7444 49.2207 29.0738 49.2207H29.8286C29.8835 49.2207 29.9247 49.1258 29.8698 49.0581Z" fill="black"/>
<path d="M13.4556 41.9041H8.85795C8.7756 41.9041 8.7207 41.9582 8.7207 42.0395C8.7207 42.5815 9.17361 43.0286 9.72258 43.0286H13.4556C13.5105 43.0286 13.5654 42.988 13.5654 42.9202V41.9989C13.5517 41.9447 13.5105 41.9041 13.4556 41.9041ZM13.4556 48.0961H10.0245C9.96961 48.0961 9.91472 48.0554 9.91472 47.9877V46.1585C9.91472 46.1043 9.95589 46.0501 10.0245 46.0501H13.1948C13.2497 46.0501 13.3046 46.0095 13.3046 45.9417V45.0204C13.3046 44.9662 13.2634 44.912 13.1948 44.912H8.87167C8.78933 44.912 8.7207 44.9797 8.7207 45.061V49.0581C8.7207 49.1394 8.78933 49.2071 8.87167 49.2071H13.4556C13.5105 49.2071 13.5654 49.1665 13.5654 49.0987V48.1774C13.5517 48.1367 13.5105 48.0961 13.4556 48.0961Z" fill="black"/>
<path d="M24.04 8.53333L17.7802 17.8333C17.3474 18.4667 18.1798 19.2333 18.7791 18.7L24.939 13.3333C25.1054 13.2 25.3385 13.3 25.3385 13.5333V30.3C25.3385 30.5333 25.0388 30.6333 24.9057 30.4667L6.25971 8.13333C5.66038 7.4 4.79467 7 3.82908 7H3.16315C1.43174 7 0 8.43333 0 10.2V33.8C0 35.5667 1.43174 37 3.19645 37C4.29523 37 5.32741 36.4333 5.92675 35.4667L12.1865 26.1667C12.6193 25.5333 11.7869 24.7667 11.1876 25.3L5.02775 30.6333C4.86126 30.7667 4.62819 30.6667 4.62819 30.4333V13.7C4.62819 13.4667 4.92786 13.3667 5.06104 13.5333L23.707 35.8667C24.3063 36.6 25.2053 37 26.1376 37H26.8035C28.5683 37 30 35.5667 30 33.8V10.2C29.9667 8.43333 28.535 7 26.7703 7C25.6715 7 24.6393 7.56667 24.04 8.53333Z" fill="black"/>
</g>
<defs>
<clipPath id="clip0_481_225">
<rect width="30" height="49" fill="white"/>
</clipPath>
</defs>
</svg>
