<svg width="48" height="48" viewBox="0 0 48 48" fill="none" xmlns="http://www.w3.org/2000/svg">
<g opacity="0.9">
<path d="M31.9725 29.3475L31.5975 29.1375L31.185 30.42L32.25 33.615C32.3026 33.763 32.3026 33.9245 32.25 34.0725L31.215 37.32L32.16 40.83C32.1979 40.9616 32.1991 41.1011 32.1634 41.2333C32.1277 41.3655 32.0565 41.4854 31.9575 41.58C31.8605 41.6751 31.7395 41.7421 31.6074 41.7738C31.4753 41.8055 31.3371 41.8007 31.2075 41.76L30.075 41.4225H30H29.94L28.5 40.95L26.25 41.9325C26.1534 41.9765 26.0486 41.9995 25.9425 42C25.8387 42.0001 25.7362 41.977 25.6425 41.9325L23.4525 40.9725L21.27 41.9325C21.1763 41.9771 21.0738 42.0003 20.97 42.0003C20.8662 42.0003 20.7637 41.9771 20.67 41.9325L18.48 40.9725L16.2975 41.9325C16.2038 41.9771 16.1013 42.0003 15.9975 42.0003C15.8937 42.0003 15.7912 41.9771 15.6975 41.9325L13.5 40.95L10.8225 41.745C10.7184 41.776 10.6088 41.7839 10.5014 41.7684C10.3939 41.7529 10.2911 41.7142 10.2 41.655L10.0875 41.5575C9.98849 41.4629 9.91727 41.343 9.88158 41.2108C9.84588 41.0785 9.84706 40.9391 9.885 40.8075L10.83 37.275L9.945 34.575L9.795 34.1025C9.74237 33.9545 9.74237 33.793 9.795 33.645L10.8225 30.45L9.795 27.255C9.74237 27.107 9.74237 26.9455 9.795 26.7975L10.8225 23.6025L9.795 20.4075C9.74237 20.2595 9.74237 20.098 9.795 19.95L10.83 16.7325L9.885 13.1925C9.84706 13.0609 9.84588 12.9215 9.88158 12.7892C9.91727 12.657 9.98849 12.5371 10.0875 12.4425C10.1845 12.3474 10.3055 12.2804 10.4376 12.2487C10.5697 12.217 10.7079 12.2218 10.8375 12.2625L13.5075 13.0125L15.7575 12.03C15.8532 11.9876 15.9566 11.9657 16.0613 11.9657C16.1659 11.9657 16.2693 11.9876 16.365 12.03L18.5475 12.99L20.73 12.03C20.8174 12.0036 20.9089 11.9935 21 12V9.8025C20.9998 9.27575 21.0808 8.75211 21.24 8.25H9C8.40326 8.25 7.83097 8.48705 7.40901 8.90901C6.98705 9.33097 6.75 9.90326 6.75 10.5V43.5C6.75 44.0967 6.98705 44.669 7.40901 45.091C7.83097 45.5129 8.40326 45.75 9 45.75H33C33.5967 45.75 34.169 45.5129 34.591 45.091C35.0129 44.669 35.25 44.0967 35.25 43.5V29.94C35.0023 29.9826 34.7513 30.0027 34.5 30C33.616 29.9988 32.7466 29.7743 31.9725 29.3475Z" fill="#EC4B24"/>
<path d="M11.6702 39.9215L13.3352 39.434C13.5 39.3745 13.6804 39.3745 13.8452 39.434L16.0352 40.4015L18.2177 39.434C18.3123 39.3927 18.4145 39.3714 18.5177 39.3714C18.6209 39.3714 18.7231 39.3927 18.8177 39.434L21.0002 40.4315L23.1827 39.464C23.2773 39.4227 23.3794 39.4014 23.4827 39.4014C23.5859 39.4014 23.6881 39.4227 23.7827 39.464L25.9727 40.4315L27.9752 39.5465L17.7827 29.339C17.713 29.2687 17.63 29.2129 17.5386 29.1749C17.4472 29.1368 17.3492 29.1172 17.2502 29.1172C17.1512 29.1172 17.0532 29.1368 16.9618 29.1749C16.8704 29.2129 16.7874 29.2687 16.7177 29.339L11.5127 34.544L12.3227 37.0565C12.3613 37.1913 12.3613 37.3342 12.3227 37.469L11.6702 39.9215Z" fill="#EC4B24"/>
<path d="M38.25 43.5H41.25V46.5H38.25V43.5Z" fill="#EC4B24"/>
<path d="M1.5 5.25H4.5V8.25H1.5V5.25Z" fill="#EC4B24"/>
<path d="M44.5875 6.55468L36.3 1.96468C35.7494 1.65865 35.1299 1.49805 34.5 1.49805C33.8701 1.49805 33.2506 1.65865 32.7 1.96468L24.4125 6.55468C23.8355 6.87903 23.3546 7.35034 23.0186 7.92072C22.6827 8.49111 22.5038 9.14025 22.5 9.80219V20.1972C22.5025 20.8604 22.6808 21.5111 23.0168 22.0829C23.3527 22.6547 23.8344 23.1272 24.4125 23.4522L32.7 28.0347C33.2519 28.3367 33.8709 28.4949 34.5 28.4949C35.1291 28.4949 35.7481 28.3367 36.3 28.0347L44.5875 23.4522C45.1656 23.1272 45.6473 22.6547 45.9832 22.0829C46.3192 21.5111 46.4975 20.8604 46.5 20.1972V9.80219C46.4962 9.14025 46.3173 8.49111 45.9814 7.92072C45.6454 7.35034 45.1645 6.87903 44.5875 6.55468ZM31.5 17.9997C31.5 18.1986 31.421 18.3894 31.2803 18.53C31.1397 18.6707 30.9489 18.7497 30.75 18.7497C30.6191 18.7489 30.4907 18.7139 30.3776 18.6481C30.2644 18.5823 30.1704 18.488 30.105 18.3747L27 14.2497V17.9997C27 18.1986 26.921 18.3894 26.7803 18.53C26.6397 18.6707 26.4489 18.7497 26.25 18.7497C26.0511 18.7497 25.8603 18.6707 25.7197 18.53C25.579 18.3894 25.5 18.1986 25.5 17.9997V11.9997C25.5 11.8008 25.579 11.61 25.7197 11.4694C25.8603 11.3287 26.0511 11.2497 26.25 11.2497C26.3901 11.2515 26.5269 11.2925 26.6448 11.3681C26.7628 11.4436 26.8573 11.5507 26.9175 11.6772C26.9056 11.6433 26.8906 11.6107 26.8725 11.5797L30 15.7497V11.9997C30 11.8008 30.079 11.61 30.2197 11.4694C30.3603 11.3287 30.5511 11.2497 30.75 11.2497C30.9489 11.2497 31.1397 11.3287 31.2803 11.4694C31.421 11.61 31.5 11.8008 31.5 11.9997V17.9997ZM36.75 14.2497C36.9489 14.2497 37.1397 14.3287 37.2803 14.4694C37.421 14.61 37.5 14.8008 37.5 14.9997C37.5 15.1986 37.421 15.3894 37.2803 15.53C37.1397 15.6707 36.9489 15.7497 36.75 15.7497H34.5V17.9997C34.5 18.1986 34.421 18.3894 34.2803 18.53C34.1397 18.6707 33.9489 18.7497 33.75 18.7497C33.5511 18.7497 33.3603 18.6707 33.2197 18.53C33.079 18.3894 33 18.1986 33 17.9997V11.9997C33 11.8008 33.079 11.61 33.2197 11.4694C33.3603 11.3287 33.5511 11.2497 33.75 11.2497H36.75C36.9489 11.2497 37.1397 11.3287 37.2803 11.4694C37.421 11.61 37.5 11.8008 37.5 11.9997C37.5 12.1986 37.421 12.3894 37.2803 12.53C37.1397 12.6707 36.9489 12.7497 36.75 12.7497H34.5V14.2497H36.75ZM42.75 12.7497H42V17.9997C42 18.1986 41.921 18.3894 41.7803 18.53C41.6397 18.6707 41.4489 18.7497 41.25 18.7497C41.0511 18.7497 40.8603 18.6707 40.7197 18.53C40.579 18.3894 40.5 18.1986 40.5 17.9997V12.7497H39.75C39.5511 12.7497 39.3603 12.6707 39.2197 12.53C39.079 12.3894 39 12.1986 39 11.9997C39 11.8008 39.079 11.61 39.2197 11.4694C39.3603 11.3287 39.5511 11.2497 39.75 11.2497H42.75C42.9489 11.2497 43.1397 11.3287 43.2803 11.4694C43.421 11.61 43.5 11.8008 43.5 11.9997C43.5 12.1986 43.421 12.3894 43.2803 12.53C43.1397 12.6707 42.9489 12.7497 42.75 12.7497Z" fill="#EC4B24"/>
<path d="M20.25 21.75C20.25 21.1567 20.0741 20.5766 19.7444 20.0833C19.4148 19.5899 18.9462 19.2054 18.3981 18.9784C17.8499 18.7513 17.2467 18.6919 16.6647 18.8076C16.0828 18.9234 15.5482 19.2091 15.1287 19.6287C14.7091 20.0482 14.4234 20.5828 14.3076 21.1647C14.1919 21.7467 14.2513 22.3499 14.4784 22.8981C14.7054 23.4462 15.0899 23.9148 15.5833 24.2444C16.0766 24.5741 16.6567 24.75 17.25 24.75C18.0457 24.75 18.8087 24.4339 19.3713 23.8713C19.9339 23.3087 20.25 22.5457 20.25 21.75Z" fill="#EC4B24"/>
</g>
</svg>
