<svg width="46" height="46" viewBox="0 0 46 46" fill="none" xmlns="http://www.w3.org/2000/svg">
<path d="M9.88281 0H4.94141C4.19714 0 3.59375 0.603391 3.59375 1.34766V9.16406H9.88281V0Z" fill="#FFC44F"/>
<path d="M24.2578 1.34766C24.2578 0.603391 23.6544 0 22.9102 0H12.5781V9.16406H24.2578V1.34766Z" fill="#FFC44F"/>
<path d="M8.08594 18.5977H19.7656V23.0898H8.08594V18.5977Z" fill="#FFC44F"/>
<path d="M23.8086 11.8594H4.04297C1.81368 11.8594 0 13.6731 0 15.9023V41.957C0 44.1863 1.81368 46 4.04297 46H23.8086C26.0379 46 27.8516 44.1863 27.8516 41.957V15.9023C27.8516 13.6731 26.0379 11.8594 23.8086 11.8594ZM8.53516 42.4062C7.79089 42.4062 7.1875 41.8029 7.1875 41.0586C7.1875 40.3143 7.79089 39.7109 8.53516 39.7109C9.27942 39.7109 9.88281 40.3143 9.88281 41.0586C9.88281 41.8029 9.27942 42.4062 8.53516 42.4062ZM8.53516 37.0156C7.79089 37.0156 7.1875 36.4122 7.1875 35.668C7.1875 34.9237 7.79089 34.3203 8.53516 34.3203C9.27942 34.3203 9.88281 34.9237 9.88281 35.668C9.88281 36.4122 9.27942 37.0156 8.53516 37.0156ZM8.53516 31.625C7.79089 31.625 7.1875 31.0216 7.1875 30.2773C7.1875 29.5331 7.79089 28.9297 8.53516 28.9297C9.27942 28.9297 9.88281 29.5331 9.88281 30.2773C9.88281 31.0216 9.27942 31.625 8.53516 31.625ZM13.9258 42.4062C13.1815 42.4062 12.5781 41.8029 12.5781 41.0586C12.5781 40.3143 13.1815 39.7109 13.9258 39.7109C14.67 39.7109 15.2734 40.3143 15.2734 41.0586C15.2734 41.8029 14.67 42.4062 13.9258 42.4062ZM13.9258 37.0156C13.1815 37.0156 12.5781 36.4122 12.5781 35.668C12.5781 34.9237 13.1815 34.3203 13.9258 34.3203C14.67 34.3203 15.2734 34.9237 15.2734 35.668C15.2734 36.4122 14.67 37.0156 13.9258 37.0156ZM13.9258 31.625C13.1815 31.625 12.5781 31.0216 12.5781 30.2773C12.5781 29.5331 13.1815 28.9297 13.9258 28.9297C14.67 28.9297 15.2734 29.5331 15.2734 30.2773C15.2734 31.0216 14.67 31.625 13.9258 31.625ZM19.3164 42.4062C18.5721 42.4062 17.9688 41.8029 17.9688 41.0586C17.9688 40.3143 18.5721 39.7109 19.3164 39.7109C20.0607 39.7109 20.6641 40.3143 20.6641 41.0586C20.6641 41.8029 20.0607 42.4062 19.3164 42.4062ZM19.3164 37.0156C18.5721 37.0156 17.9688 36.4122 17.9688 35.668C17.9688 34.9237 18.5721 34.3203 19.3164 34.3203C20.0607 34.3203 20.6641 34.9237 20.6641 35.668C20.6641 36.4122 20.0607 37.0156 19.3164 37.0156ZM19.3164 31.625C18.5721 31.625 17.9688 31.0216 17.9688 30.2773C17.9688 29.5331 18.5721 28.9297 19.3164 28.9297C20.0607 28.9297 20.6641 29.5331 20.6641 30.2773C20.6641 31.0216 20.0607 31.625 19.3164 31.625ZM22.4609 24.4375C22.4609 25.1818 21.8575 25.7852 21.1133 25.7852H6.73828C5.99402 25.7852 5.39062 25.1818 5.39062 24.4375V17.25C5.39062 16.5057 5.99402 15.9023 6.73828 15.9023H21.1133C21.8575 15.9023 22.4609 16.5057 22.4609 17.25V24.4375Z" fill="#FFC44F"/>
<path d="M33.8711 24.4375C34.6154 24.4375 35.2188 23.8341 35.2188 23.0898C35.2188 22.3456 34.6154 21.7422 33.8711 21.7422C33.1268 21.7422 32.5234 22.3456 32.5234 23.0898C32.5234 23.8341 33.1268 24.4375 33.8711 24.4375Z" fill="#FFC44F"/>
<path d="M38.6355 18.3264C38.1094 17.8001 37.2561 17.8001 36.7297 18.3264C36.2034 18.8526 36.2034 19.7058 36.7297 20.2322C38.306 21.8086 38.306 24.3736 36.7297 25.95C36.2034 26.4763 36.2034 27.3295 36.7297 27.8558C36.9928 28.1191 37.3377 28.2506 37.6826 28.2506C38.0274 28.2506 38.3724 28.119 38.6355 27.8558C41.2627 25.2285 41.2627 20.9536 38.6355 18.3264Z" fill="#FFC44F"/>
<path d="M42.4481 14.5138C41.9218 13.9876 41.0685 13.9876 40.5422 14.5138C40.0159 15.04 40.0159 15.8934 40.5422 16.4197C42.324 18.2014 43.3053 20.5703 43.3053 23.0902C43.3053 25.61 42.324 27.979 40.5422 29.7607C40.0159 30.287 40.0159 31.1403 40.5422 31.6666C40.8053 31.9298 41.1503 32.0614 41.4951 32.0614C41.8399 32.0614 42.1849 31.9297 42.448 31.6666C44.7389 29.3758 46.0006 26.33 46.0006 23.0902C46.0006 19.8504 44.7389 16.8046 42.4481 14.5138Z" fill="#FFC44F"/>
</svg>
