<svg width="156" height="156" viewBox="0 0 156 156" fill="none" xmlns="http://www.w3.org/2000/svg">
<path d="M155.282 68.6612C150.669 29.9825 117.8 0 77.9244 0C34.8851 0 0 34.9229 0 78C0 121.077 34.8851 156 77.9244 156C80.2938 156 82.6379 155.887 84.9569 155.685L155.282 68.6612Z" fill="#EC4B24"/>
<path d="M155.849 77.9999C155.849 74.8366 155.66 71.7236 155.295 68.6611L103.043 16.3586L45.7366 110.554L74.4841 139.326L73.1356 143.838L84.9572 155.672C124.694 152.106 155.837 118.695 155.837 77.9873L155.849 77.9999Z" fill="#E52929"/>
<path d="M72.5065 105.134L77.9258 145.829C81.6689 145.829 84.7062 142.792 84.7062 139.049V105.134H72.5065Z" fill="#F5B5B2"/>
<path d="M71.1445 105.134V139.049C71.1445 142.792 74.1819 145.829 77.9249 145.829V105.134H71.1445Z" fill="#FFEBC4"/>
<path d="M107.177 25.7727C106.925 18.3117 100.624 12.2119 93.1753 12.2119H77.9256L64.3774 63.0776L77.9256 110.553H86.3949L92.1166 107.163L99.6028 110.553H110.101L107.165 25.7601L107.177 25.7727Z" fill="#FFB014"/>
<path d="M62.6751 12.2119C55.2267 12.2119 48.9252 18.3117 48.6731 25.7727L45.7366 110.566H56.2349L63.7211 107.176L69.4429 110.566H77.9121V12.2119H62.6625H62.6751Z" fill="#FFC44F"/>
<path d="M97.8511 25.7728H84.7062V110.566H99.6155L97.8511 25.7728Z" fill="#F98E19"/>
<path d="M58.0006 25.7728L56.2362 110.566H71.1455V25.7728H58.0006Z" fill="#FFB014"/>
</svg>
