<svg width="48" height="48" viewBox="0 0 48 48" fill="none" xmlns="http://www.w3.org/2000/svg">
<g opacity="0.9">
<path d="M6.71973 7.4873V29.2313H41.2797V7.4873C41.2797 6.2873 40.2717 5.2793 39.0717 5.2793H8.92773C7.72773 5.2793 6.71973 6.2873 6.71973 7.4873ZM37.1037 25.0553H10.8957V9.4553H37.0557V25.0553H37.1037Z" fill="#276EE7"/>
<path d="M41.2799 31.3906H34.0319L34.3199 32.9746H13.6798V31.3906H6.71984L3.83984 40.5586C3.83984 41.7586 4.79984 42.7186 5.99984 42.7186H41.9999C43.1999 42.7186 44.1599 41.7586 44.1599 40.5586L41.2799 31.3906ZM28.0319 40.4626H19.7278C19.2958 40.4626 18.9118 39.9826 18.9118 39.3586C18.9118 38.7346 19.2478 38.2546 19.7278 38.2546H28.0319C28.4639 38.2546 28.8479 38.7346 28.8479 39.3586C28.8479 39.9826 28.4639 40.4626 28.0319 40.4626Z" fill="#276EE7"/>
</g>
</svg>
